<?xml version="1.0" encoding="UTF-8"?>
<svg width="61px" height="61px" viewBox="0 0 61 61" version="1.1" xmlns="http://www.w3.org/2000/svg" xmlns:xlink="http://www.w3.org/1999/xlink">
    <!-- Generator: Sketch 56.3 (81716) - https://sketch.com -->
    <title>Group Copy 2</title>
    <desc>Created with Sketch.</desc>
    <g id="Proton_landing_page" stroke="none" stroke-width="1" fill="none" fill-rule="evenodd">
        <g id="signup_1440_v1" transform="translate(-939.000000, -329.000000)">
            <g id="Group-Copy-2" transform="translate(939.000000, 329.000000)">
                <circle id="Oval" fill="#72B097" cx="30.5" cy="30.5" r="30.5"></circle>
                <g id="hand" transform="translate(12.000000, 12.000000)" fill-rule="nonzero">
                    <path d="M17.1713432,25.3938812 C17.5725152,24.9919256 17.5725152,24.3414079 17.1713432,23.9394522 C16.7697694,23.5387011 16.1192199,23.5387011 15.7172447,23.9394522 C15.316474,24.3414079 15.316474,24.9919256 15.7172447,25.3938812 C16.1192199,25.7946322 16.7697694,25.7946322 17.1713432,25.3938812 Z" id="Path" fill="#72B097"></path>
                    <path d="M14.3888889,7.70819644 C14.3888889,11.9584925 17.8468507,15.4166667 22.0972222,15.4166667 C26.3475937,15.4166667 29.8055556,11.9584925 29.8055556,7.70819644 C29.8055556,3.45790041 26.3475937,0 22.0972222,0 C17.8468507,0 14.3888889,3.45790041 14.3888889,7.70819644 Z M28.4041897,7.70819644 C28.4041897,11.1858109 25.5748985,14.0150519 22.0972222,14.0150519 C18.619546,14.0150519 15.7902547,11.1858109 15.7902547,7.70819644 C15.7902547,4.23085576 18.619546,1.40161474 22.0972222,1.40161474 C25.5748985,1.40161474 28.4041897,4.23085576 28.4041897,7.70819644 Z" id="Shape" fill="#FFFFFF"></path>
                    <path d="M8.32408388,36.7870876 C8.6042006,37.0684207 9.06023741,37.0715154 9.34402499,36.7929956 L12.847743,33.3539794 C13.442991,32.7609292 13.6239938,31.8828885 13.3622315,31.1196316 L14.1158924,30.3954802 C14.5216663,30.0049898 15.0559211,29.78977 15.6206726,29.78977 L25.2279419,29.78977 C26.9323617,29.78977 28.5433152,29.1376398 29.7645902,27.9535087 C29.8148531,27.904838 29.3831006,28.411519 36.3188132,20.1527037 C37.347508,18.9401579 37.1936131,17.1193699 35.9754443,16.093348 C34.7648996,15.0768913 32.9514827,15.2229032 31.9199641,16.4146304 L27.655526,20.7814832 C27.1170354,20.1211944 26.2958868,19.709604 25.4086623,19.709604 L17.3499415,19.709604 C16.2032137,19.231619 14.9864567,18.9896725 13.7310142,18.9896725 C10.2510158,18.9896725 7.21237067,20.5910206 5.58165084,23.5934078 C4.89463072,23.4637132 4.17005458,23.6707744 3.64878896,24.1901154 L0.210864566,27.6254743 C-0.0698169406,27.9059634 -0.0703816559,28.3597537 0.209735063,28.6410868 L8.32408388,36.7870876 Z M13.7307318,20.4295355 C14.8376447,20.4295355 15.9078487,20.6515073 16.9122591,21.0892616 C17.0037489,21.129211 17.102298,21.1497483 17.2019767,21.1497483 L25.4086623,21.1497483 C26.1922549,21.1497483 26.8541436,21.7864052 26.8541436,22.5896112 C26.8541436,23.3838146 26.205809,24.0297555 25.4086623,24.0297555 L19.5123748,24.0297555 C19.1133779,24.0297555 18.7897754,24.3521633 18.7897754,24.749687 C18.7897754,25.1474921 19.1133779,25.4696185 19.5123748,25.4696185 L25.4086623,25.4696185 C27.0026733,25.4696185 28.2993426,24.1777368 28.2993426,22.5896112 C28.2993426,22.4630113 28.2903066,22.3375367 28.2739288,22.2131875 C32.3991557,17.9884079 32.9808498,17.394795 33.0056988,17.365255 C33.5207522,16.7595448 34.4350847,16.6827409 35.0433221,17.1936419 C35.652124,17.7065121 35.7292127,18.6169061 35.2127475,19.2259924 L28.7308127,26.9463361 C27.7842893,27.851666 26.5415537,28.349907 25.2279419,28.349907 L15.6206726,28.349907 C14.6792319,28.349907 13.7880541,28.7086068 13.1120467,29.3593303 L12.4978794,29.9498485 L6.83624613,24.3094007 C8.15945881,21.8362011 10.6423885,20.4295355 13.7307318,20.4295355 L13.7307318,20.4295355 Z M4.67155386,25.2076973 C4.90987898,24.9702522 5.27583791,24.9274895 5.56640252,25.1064174 C5.69149498,25.1823773 5.33231306,24.8565936 11.8258252,31.3171275 C12.1146956,31.6049313 12.0991649,32.0635043 11.8297785,32.3318962 L8.84280806,35.2636687 L1.74190571,28.1349685 L4.67155386,25.2076973 Z" id="Shape" fill="#FFFFFF"></path>
                    <path d="M21.2769646,3.81766521 L21.2769646,4.67792354 C20.2905503,4.98083544 19.581948,5.79691908 19.581948,6.75413214 C19.581948,7.96836142 20.7223342,8.9565541 22.1243074,8.9565541 C22.5915214,8.9565541 22.97165,9.28585604 22.97165,9.69059914 C22.97165,10.0953422 22.5915214,10.4246442 22.1243074,10.4246442 C21.7623904,10.4246442 21.3713345,10.2275793 21.0239869,9.8693057 C20.7226653,9.55893571 20.1882335,9.51906377 19.8299588,9.77980901 C19.4716842,10.040841 19.425327,10.5038143 19.7266485,10.8141843 C20.1796242,11.2808866 20.7124006,11.6061726 21.2769646,11.7702499 L21.2769646,12.6270661 C21.2769646,13.0326697 21.6564311,13.3611111 22.1243074,13.3611111 C22.5921836,13.3611111 22.97165,13.0326697 22.97165,12.6270661 L22.97165,11.7668077 C23.9580643,11.463609 24.6666667,10.6475254 24.6666667,9.69059914 C24.6666667,8.47608303 23.5262804,7.48817718 22.1243074,7.48817718 C21.6570933,7.48817718 21.2769646,7.15887523 21.2769646,6.75413214 C21.2769646,6.34938912 21.6570933,6.01980026 22.1243074,6.01980026 C22.4246356,6.01980026 22.7415199,6.15261108 23.0408547,6.40360344 C23.3772753,6.68557543 23.9136939,6.6778305 24.2391874,6.38667937 C24.5646809,6.09524141 24.5557406,5.63054702 24.2196512,5.34857511 C23.7895229,4.98800663 23.3590635,4.78405748 22.97165,4.67276023 L22.97165,3.81766521 C22.97165,3.41206162 22.5921836,3.08333333 22.1243074,3.08333333 C21.6564311,3.08333333 21.2769646,3.41206162 21.2769646,3.81766521 L21.2769646,3.81766521 Z" id="Path" fill="#FFFFFF"></path>
                </g>
            </g>
        </g>
    </g>
</svg>