<svg xmlns="http://www.w3.org/2000/svg" viewBox="0 0 147.85 29.23" width="147.85" height="29.23"><defs><style>.cls-1{fill:#fff;}.cls-2{fill:#00a160;}.cls-3{fill:#a0cf67;}</style></defs><title>farmaSEP</title><g id="Layer_2" data-name="Layer 2"><g id="Layer_1-2" data-name="Layer 1"><path class="cls-1" d="M95.89,29.23h0Z"/><path class="cls-1" d="M95.89,1.18h0Z"/><path class="cls-2" d="M15.89,9.61l.74-.87c.12-.14.09-.26-.11-.26l-3.66,0H11.72a14.77,14.77,0,0,1,1.63-5A2.91,2.91,0,0,1,15.59,2.2c2.09.28,1.92,4.9,2.27,5s.69-.14,1.5-.83a3.44,3.44,0,0,0,1.19-3.27A4.33,4.33,0,0,0,16.91.17C12.55-.79,8.85,2.45,7.75,7c-.13.49-.25,1-.37,1.54-.7,0-1.47,0-2.09.05a2.21,2.21,0,0,0-1,.19,5.51,5.51,0,0,0-1,1.13c-.36.44-.6.71-.74.89s-.08.24.07.24l3.52,0h.73c-.27,1.2-3.14,11.86-3.62,13.08A10.22,10.22,0,0,1,0,28.88c-.17.13.46.25,1.23.15a8.44,8.44,0,0,0,5.88-5.65,123.36,123.36,0,0,0,4-12.47c.56,0,1.11,0,1.66,0a4.88,4.88,0,0,0,2-.2A6.19,6.19,0,0,0,15.89,9.61Z"/><path class="cls-2" d="M42.78,12.64c.17.25.26.16.34-.1a12.91,12.91,0,0,0,.35-4.89c-.1-.7-.59-.79-1.4-.91a5.56,5.56,0,0,0-1.67,0c-1.81.33-3,1.15-4.48,4.89A16,16,0,0,0,36.5,8c-.11-.92-.49-1.25-1.2-1.31a9.38,9.38,0,0,0-3,.33c0,.19.16,1.93.16,2.73A35.33,35.33,0,0,1,31,18.07l-.27.28c-.28.31-1.77,2.63-2.78,2.12-1.22-.83-1.7-3.49-.2-8.18A15,15,0,0,1,30.56,7c.05-.06.13-.2,0-.28a5.58,5.58,0,0,0-2.62,0,4.32,4.32,0,0,0-1.94.8,4.84,4.84,0,0,0-3-.86c-4.95,0-9.6,6.77-9.72,12.71,0,2.52.86,4.34,3.32,4.34h.34c2-.09,4.28-2,6.58-5.79a22,22,0,0,0-.15,2.5c0,2.21,1.05,3.26,2.74,3.26a4.6,4.6,0,0,0,2.57-1.1,10.28,10.28,0,0,0,1.41-1.56c-.21.62-.43,1.25-.67,1.88-.1.28,0,.38.22.42a12.77,12.77,0,0,0,2,.21c1.54,0,2.25-.53,2.52-1.69,1.92-8.06,3.59-10.78,6-10.77A3.85,3.85,0,0,1,42.78,12.64ZM21.39,17.88c-1.08,1.86-2.13,2.83-2.77,2.83s-.82-.73-.88-1.8c0-4,2.46-9.91,4.92-9.91,1,0,1.44.52,1.78,1.78A40.67,40.67,0,0,1,21.39,17.88Z"/><path class="cls-2" d="M82.76,7.66a9.88,9.88,0,0,1,.64-.91c.12-.16,0-.25-.15-.28a8.3,8.3,0,0,0-4,.47L79.14,7a5.19,5.19,0,0,0-2.53-.55c-4.9,0-9.51,6.64-9.71,12.54A6.19,6.19,0,0,1,65,20.39c-.62.13-.48-.89-.19-2.42.42-2.38,1.82-6.3,1.82-9.18a2.13,2.13,0,0,0-2.09-2.22c-1.79,0-4.8,2.12-7.63,6.65a15.25,15.25,0,0,0,.71-4.65,1.93,1.93,0,0,0-2.13-2c-1.91,0-4.89,2.31-7.72,6.71a25.46,25.46,0,0,0,1-5.11,1.51,1.51,0,0,0-1.66-1.51A8.94,8.94,0,0,0,44.26,7a11.7,11.7,0,0,1,0,2.52A49.91,49.91,0,0,1,41,22.74c-.13.32-.05.52.25.59a12.35,12.35,0,0,0,1.94.2,2.29,2.29,0,0,0,2.53-1.7c1.5-3.63,2.15-5.32,3.17-6.83,1.54-2.28,3.14-4.55,4-4.58.3,0,.49.12.49.55,0,1.11-1.17,6-2.59,12a3.37,3.37,0,0,0,2.16.58c.77,0,1.75-.14,1.75-.36.74-4,5.79-12.72,7.17-12.72.31,0,.46.12.46.52s-.4,2.31-1.17,5.75a28.13,28.13,0,0,0-.74,4.13,2.43,2.43,0,0,0,2.68,2.77c1.27,0,2.89-1.12,4-2.49a2.93,2.93,0,0,0,3.09,2.37h.34c2-.09,4.27-2,6.57-5.75a14.48,14.48,0,0,0,1,4.19,2.76,2.76,0,0,0,3.23,1.54,3.43,3.43,0,0,0,1.46-.72A14.37,14.37,0,0,1,82.55,8C82.61,7.89,82.69,7.77,82.76,7.66ZM72.26,20.47c-.65,0-.82-.72-.88-1.8,0-4,2.46-9.9,4.93-9.9,1,0,1.43.52,1.77,1.78a40.62,40.62,0,0,1-3,7.09C74,19.5,72.9,20.47,72.26,20.47Z"/><path class="cls-2" d="M132.44,8.73h-4.89v6.78h4.89c2.68,0,3.2-.54,3.2-3.27S135.25,8.7,132.44,8.73Z"/><path class="cls-2" d="M144.75,6.28A13.34,13.34,0,0,0,134.6,1.19H120.38a3.41,3.41,0,0,1,.61,2,3.45,3.45,0,0,1-2.62,3.49,8.54,8.54,0,0,1-1.46.12,15.76,15.76,0,0,1-4-.64,10.86,10.86,0,0,0-1.22-.28c-.85-.11-1.38,1.36-1.38,2.74a3.94,3.94,0,0,0,.38,1.83c.35.68.77.68.91.68a8.51,8.51,0,0,0,1.55-.36A14.46,14.46,0,0,1,117,10a3.77,3.77,0,0,1,2.8,1,5.18,5.18,0,0,1,1.14,3.82c0,2.73-1.18,4.11-3.38,4.11a13.17,13.17,0,0,1-3.16-.54,11,11,0,0,0-2.31-.43,1.74,1.74,0,0,0-.51.07c-.71.26-1,1.14-1,1.65-.23,1.51.29,3.21.9,3.67a3,3,0,0,0,1.9.72,6.79,6.79,0,0,0,2-.43,9,9,0,0,1,2.88-.57q.3,0,.6,0c1.35.14,2.15,1.76,2.23,3.29a4.31,4.31,0,0,1-.86,2.79h14.33a13.35,13.35,0,0,0,10.24-5.09,14.4,14.4,0,0,0,0-17.85ZM132.44,18.72h-4.89V25h-3.74V5.53h8.63c5.23,0,6.95,1.24,6.95,6.71S137.54,18.72,132.44,18.72Z"/><path class="cls-3" d="M118.72,24.09a4.36,4.36,0,0,0-.51,0,8.17,8.17,0,0,0-2.59.53,7.6,7.6,0,0,1-2.27.47,4,4,0,0,1-2.48-.91c-1-.73-1.53-2.82-1.26-4.58a2.81,2.81,0,0,1,1.65-2.39,2.3,2.3,0,0,1,.83-.13,11.06,11.06,0,0,1,2.54.46,12.89,12.89,0,0,0,2.93.51c1.17,0,2.38-.37,2.43-3.17a4.3,4.3,0,0,0-.87-3.14A2.81,2.81,0,0,0,117,11a13.86,13.86,0,0,0-3.56.68,8.38,8.38,0,0,1-1.81.39,2,2,0,0,1-1.76-1.19,5,5,0,0,1-.48-2.27c0-1.93.85-3.89,2.45-3.69a12.22,12.22,0,0,1,1.35.31,14.67,14.67,0,0,0,3.72.61,6.84,6.84,0,0,0,1.3-.11A2.52,2.52,0,0,0,120,3.15a2.25,2.25,0,0,0-.58-1.59,1.14,1.14,0,0,0-.84-.37H95.15a13.3,13.3,0,0,0-9.45,4.4l-.27.29a14.43,14.43,0,0,0-2.31,14.88,14.14,14.14,0,0,0,2.31,3.76,13.35,13.35,0,0,0,9.8,4.7h23.22a1.21,1.21,0,0,0,.86-.43,3.31,3.31,0,0,0,.78-2.31C120,25.23,119.41,24.16,118.72,24.09Zm-19.5,1.13c-4.33,0-8.2.13-8.2-5.48v-.91h3.76v.91c0,2.25,1,2.4,4.44,2.4s3.89-.62,3.89-2.89c0-2.79-1.49-2.43-4.41-2.59-4.23-.26-7.57-.1-7.57-5.79,0-5.37,3.39-5.53,8.09-5.53,4,0,7.25.13,7.25,5.27v.63h-3.76v-.63c0-2.11-.86-2.19-3.49-2.19-3.73,0-4.33.36-4.33,2.45,0,2.4.49,2.48,4.3,2.72,6,.36,7.67.67,7.67,5.66C106.86,24.75,104.25,25.22,99.22,25.22Z"/></g></g></svg>