<?xml version="1.0" encoding="UTF-8"?>
<svg width="61px" height="61px" viewBox="0 0 61 61" version="1.1" xmlns="http://www.w3.org/2000/svg" xmlns:xlink="http://www.w3.org/1999/xlink">
    <!-- Generator: Sketch 56.3 (81716) - https://sketch.com -->
    <title>Group</title>
    <desc>Created with Sketch.</desc>
    <g id="Proton_landing_page" stroke="none" stroke-width="1" fill="none" fill-rule="evenodd">
        <g id="signup_1440_v1" transform="translate(-689.000000, -329.000000)">
            <g id="Group" transform="translate(689.000000, 329.000000)">
                <circle id="Oval" fill="#72B097" cx="30.5" cy="30.5" r="30.5"></circle>
                <g id="chat" transform="translate(13.216667, 17.283333)" fill="#FFFFFF" fill-rule="nonzero">
                    <path d="M25.4770655,0 L1.97300297,0 C0.885048988,0 0,0.820604756 0,1.82927666 L0,14.903624 C0,15.9122959 0.885048988,16.7329641 1.97300297,16.7329641 L3.49708292,16.7329641 L3.49708292,21.6002486 C3.49708292,21.9101406 3.69841394,22.1896399 4.00732225,22.3082922 C4.10956173,22.3476315 4.21700214,22.3666667 4.32348449,22.3666667 C4.53863906,22.3666667 4.74996136,22.2887495 4.90811091,22.142179 L10.7421255,16.7330275 L11.9126102,16.7330275 C12.3691293,16.7330275 12.7391486,16.3899509 12.7391486,15.9666729 C12.7391486,15.5433315 12.3689924,15.2002548 11.9126102,15.2002548 C11.9126102,15.2002548 10.3598567,15.20127 10.3436379,15.2027929 C10.1512033,15.2149119 9.96232711,15.2883875 9.81519533,15.4247426 L5.1501598,19.7500967 C5.1501598,19.7500967 5.1487227,15.9181968 5.1460538,15.8983368 C5.1087576,15.5071013 4.75482013,15.2002548 4.32321076,15.2002548 L1.97300297,15.2002548 C1.7965817,15.2002548 1.65314532,15.0671992 1.65314532,14.9036874 L1.65314532,1.82927666 C1.65314532,1.66570139 1.79665013,1.53270923 1.97300297,1.53270923 L25.4770655,1.53270923 C25.6534867,1.53270923 25.7969231,1.66576484 25.7969231,1.82927666 L25.7969231,6.84535251 C25.7969231,7.26863051 26.1670793,7.61170713 26.6234616,7.61170713 C27.0798438,7.61170713 27.45,7.26863051 27.45,6.84535251 L27.45,1.82927666 C27.45,0.820604756 26.564951,0 25.4770655,0 Z" id="Path"></path>
                    <path d="M32.6000206,9.15 L16.2000476,9.15 C15.1156296,9.15 14.2333333,10.0007149 14.2333333,11.0464635 L14.2333333,20.2929646 C14.2333333,21.3386474 15.1155614,22.1894281 16.2000476,22.1894281 L26.4674,22.1894281 L30.6271669,26.2006086 C30.7848124,26.352623 30.9955293,26.4333333 31.2099299,26.4333333 C31.3160729,26.4333333 31.4231708,26.413534 31.5250844,26.372817 C31.8328717,26.249811 32.0336974,25.9601877 32.0336974,25.6387933 L32.0336974,22.1893623 L32.5999524,22.1893623 C33.6843704,22.1893623 34.5666667,21.3386474 34.5666667,20.2928988 L34.5666667,11.0463977 C34.5666667,10.0007149 33.6845069,9.15 32.6000206,9.15 Z M32.9189269,20.2929646 C32.9189269,20.4624761 32.7758795,20.6004139 32.6000888,20.6004139 L31.2101346,20.6004139 C30.7765583,20.6004139 30.4219754,20.9235185 30.3894367,21.3336482 C30.387322,21.3510138 30.3859577,23.7207545 30.3859577,23.7207545 L27.3944455,20.8360329 C27.3913076,20.8330071 27.3880333,20.8301786 27.3848954,20.8271528 C27.3731623,20.816102 27.3620432,20.8064983 27.3515381,20.7978813 C27.2065124,20.67527 27.0170786,20.6003481 26.8091585,20.6003481 L16.2000476,20.6003481 C16.0241887,20.6003481 15.8812095,20.4624103 15.8812095,20.2928988 L15.8812095,11.0463977 C15.8812095,10.8768204 16.0242569,10.7389484 16.2000476,10.7389484 L32.6000888,10.7389484 C32.7758795,10.7389484 32.9189269,10.8768862 32.9189269,11.0463977 L32.9189269,20.2929646 L32.9189269,20.2929646 Z" id="Shape"></path>
                    <path d="M24.9083333,15.25 C24.6277357,15.25 24.4,15.7054714 24.4,16.2666667 C24.4,16.827862 24.6277357,17.2833333 24.9083333,17.2833333 C25.1889731,17.2833333 25.4166667,16.827862 25.4166667,16.2666667 C25.4166667,15.7054714 25.188931,15.25 24.9083333,15.25 Z" id="Path"></path>
                    <path d="M20.5447274,5.08333333 C20.5447274,5.08333333 5.88860594,5.08333333 5.88860594,5.08333333 C5.44389918,5.08333333 5.08333333,5.53846801 5.08333333,6.1 C5.08333333,6.66153199 5.44396585,7.11666667 5.88860594,7.11666667 L20.5447274,7.11666667 C20.9894342,7.11666667 21.35,6.66153199 21.35,6.1 C21.35,5.53846801 20.9894342,5.08333333 20.5447274,5.08333333 Z" id="Path"></path>
                    <path d="M12.4176864,10.1666667 L6.8989803,10.1666667 C6.45774843,10.1666667 6.1,10.6218013 6.1,11.1833333 C6.1,11.7448653 6.45781458,12.2 6.8989803,12.2 L12.4176864,12.2 C12.8589844,12.2 13.2166667,11.7448653 13.2166667,11.1833333 C13.2166667,10.6218013 12.8589182,10.1666667 12.4176864,10.1666667 Z" id="Path"></path>
                    <path d="M20.8416667,15.25 C20.5611111,15.25 20.3333333,15.7054714 20.3333333,16.2666667 C20.3333333,16.827862 20.5611111,17.2833333 20.8416667,17.2833333 C21.1223064,17.2833333 21.35,16.827862 21.35,16.2666667 C21.35,15.7054714 21.1223064,15.25 20.8416667,15.25 Z" id="Path"></path>
                    <path d="M28.975,15.25 C28.6944024,15.25 28.4666667,15.7054714 28.4666667,16.2666667 C28.4666667,16.827862 28.6944024,17.2833333 28.975,17.2833333 C29.2556397,17.2833333 29.4833333,16.827862 29.4833333,16.2666667 C29.4833333,15.7054714 29.2555976,15.25 28.975,15.25 Z" id="Path"></path>
                </g>
            </g>
        </g>
    </g>
</svg>