<?xml version="1.0" encoding="UTF-8"?>
<svg width="61px" height="61px" viewBox="0 0 61 61" version="1.1" xmlns="http://www.w3.org/2000/svg" xmlns:xlink="http://www.w3.org/1999/xlink">
    <!-- Generator: Sketch 56.3 (81716) - https://sketch.com -->
    <title>Group 3</title>
    <desc>Created with Sketch.</desc>
    <g id="Proton_landing_page" stroke="none" stroke-width="1" fill="none" fill-rule="evenodd">
        <g id="signup_1440_v1" transform="translate(-449.000000, -329.000000)">
            <g id="Group-3" transform="translate(449.000000, 329.000000)">
                <circle id="Oval" fill="#72B097" cx="30.5" cy="30.5" r="30.5"></circle>
                <g id="file" transform="translate(18.000000, 14.000000)" fill="#FFFFFF" fill-rule="nonzero">
                    <path d="M24.998364,6.67922594 C24.99615,6.48096774 24.9186595,6.28670564 24.7714276,6.14091238 L18.7958697,0.226295364 C18.7956092,0.226037551 18.7954138,0.225973098 18.7951534,0.225779738 C18.6540425,0.0862384497 18.4590791,0 18.2438639,0 L1.64344938,0 C0.737201458,0 0,0.7296108 0,1.62660669 L0,31.3733933 C0,32.2703247 0.73713634,33 1.64338426,33 L23.3566077,33 C24.2627905,33 25,32.2703892 25,31.3733933 L25,6.68721814 C25,6.6843822 24.9986245,6.68199743 24.998364,6.67922594 Z M19.0244991,2.63813601 L22.3347102,5.91455257 L19.1066781,5.91455257 C19.0614211,5.91455257 19.0244991,5.87800757 19.0244991,5.83321256 L19.0244991,2.63813601 Z M23.4388518,31.3734578 C23.4388518,31.4182528 23.4019299,31.4547333 23.3566729,31.4547333 L1.64344938,31.4547333 C1.59819233,31.4547333 1.56133551,31.4182528 1.56133551,31.3734578 L1.56133551,1.62660669 C1.56133551,1.58181168 1.59819233,1.54533114 1.64344938,1.54533114 L17.4632287,1.54533114 L17.4632287,5.83321256 C17.4632287,6.730144 18.2004953,7.45994816 19.1067432,7.45994816 L23.4388518,7.45994816 L23.4388518,31.3734578 L23.4388518,31.3734578 Z" id="Shape"></path>
                    <path d="M20.1370818,10 L4.86299021,10 C4.38643072,10 4,10.4476977 4,11 C4,11.5522189 4.38643072,12 4.86299021,12 L20.1370098,12 C20.6135693,12 21,11.5522189 21,11 C21,10.4476977 20.6135693,10 20.1370818,10 Z" id="Path"></path>
                    <path d="M20.1370818,15 L4.86299021,15 C4.38643072,15 4,15.4477811 4,16 C4,16.5522189 4.38643072,17 4.86299021,17 L20.1370098,17 C20.6135693,17 21,16.5522189 21,16 C21,15.4477811 20.6135693,15 20.1370818,15 Z" id="Path"></path>
                    <path d="M20.1370818,20 L4.86299021,20 C4.38643072,20 4,20.4477811 4,21 C4,21.5523023 4.38643072,22 4.86299021,22 L20.1370098,22 C20.6135693,22 21,21.5523023 21,21 C21,20.4478645 20.6135693,20 20.1370818,20 Z" id="Path"></path>
                    <path d="M11.2626399,25 L4.73736007,25 C4.33017591,25 4,25.4477811 4,26 C4,26.5523023 4.33017591,27 4.73736007,27 L11.2626399,27 C11.6698241,27 12,26.5523023 12,26 C12,25.4476977 11.6698241,25 11.2626399,25 Z" id="Path"></path>
                </g>
            </g>
        </g>
    </g>
</svg>